<svg xmlns="http://www.w3.org/2000/svg" xmlns:svg="http://www.w3.org/2000/svg" id="svg8" width="22" height="22" version="1.1" viewBox="0 0 5.821 5.821"><metadata id="metadata5"/><g id="layer1"><g id="g3168" style="stroke:#909090;stroke-opacity:1"><path id="path901" d="M 2.3632812 1.984375 A 0.1324995 0.1324995 0 0 0 2.25 2.1347656 A 0.1324995 0.1324995 0 0 0 2.3984375 2.2480469 C 2.6424435 2.2158044 2.9061719 2.3043649 3.0820312 2.4765625 C 3.2048822 2.5968554 3.2894144 2.7590671 3.3085938 2.9257812 C 3.3213476 3.0366427 3.3054638 3.1596364 3.2929688 3.2949219 C 3.2804368 3.4306071 3.2701901 3.583197 3.3105469 3.7382812 C 3.3438455 3.8662421 3.4102315 3.9828889 3.5019531 4.078125 C 3.5936748 4.1733611 3.7093185 4.2451189 3.8359375 4.2832031 A 0.1324995 0.1324995 0 0 0 4.0019531 4.1933594 A 0.1324995 0.1324995 0 0 0 3.9121094 4.0292969 C 3.8297238 4.0045171 3.7530387 3.9564973 3.6933594 3.8945312 C 3.63368 3.8325652 3.5900254 3.7531805 3.5683594 3.6699219 C 3.5418024 3.5678678 3.5466893 3.4492033 3.5585938 3.3203125 C 3.5705351 3.191022 3.5879256 3.0476308 3.5703125 2.8945312 C 3.5435298 2.6617257 3.4320694 2.4481756 3.2675781 2.2871094 C 3.0309201 2.0553789 2.691646 1.9409856 2.3632812 1.984375 z" style="color:#000;font-style:normal;font-variant:normal;font-weight:400;font-stretch:normal;font-size:medium;line-height:normal;font-family:sans-serif;font-variant-ligatures:normal;font-variant-position:normal;font-variant-caps:normal;font-variant-numeric:normal;font-variant-alternates:normal;font-variant-east-asian:normal;font-feature-settings:normal;font-variation-settings:normal;text-indent:0;text-align:start;text-decoration:none;text-decoration-line:none;text-decoration-style:solid;text-decoration-color:#000;letter-spacing:normal;word-spacing:normal;text-transform:none;writing-mode:lr-tb;direction:ltr;text-orientation:mixed;dominant-baseline:auto;baseline-shift:baseline;text-anchor:start;white-space:normal;shape-padding:0;shape-margin:0;inline-size:0;clip-rule:nonzero;display:inline;overflow:visible;visibility:visible;isolation:auto;mix-blend-mode:normal;color-interpolation:sRGB;color-interpolation-filters:linearRGB;solid-color:#000;solid-opacity:1;vector-effect:none;fill:#909090;fill-opacity:1;fill-rule:nonzero;stroke:none;stroke-width:.264999;stroke-linecap:round;stroke-linejoin:round;stroke-miterlimit:4;stroke-dasharray:none;stroke-dashoffset:531.552;stroke-opacity:1;paint-order:markers fill stroke;color-rendering:auto;image-rendering:auto;shape-rendering:auto;text-rendering:auto;enable-background:accumulate;stop-color:#000;stop-opacity:1;opacity:1"/><path id="path905" d="M 6 5.5 A 0.50083507 0.50083507 0 0 0 5.5 6 L 5.5 10 A 0.50083507 0.50083507 0 0 0 6 10.5 L 7 10.5 C 8.3752137 10.5 9.5000001 9.3752139 9.5 8 C 9.4999999 6.6247863 8.3752137 5.5000001 7 5.5 L 6 5.5 z M 6.5 6.5 L 7 6.5 C 7.8339253 6.5000001 8.4999999 7.1660747 8.5 8 C 8.5000001 8.8339251 7.8339253 9.4999999 7 9.5 L 6.5 9.5 L 6.5 6.5 z" transform="scale(0.26458333)" style="color:#000;font-style:normal;font-variant:normal;font-weight:400;font-stretch:normal;font-size:medium;line-height:normal;font-family:sans-serif;font-variant-ligatures:normal;font-variant-position:normal;font-variant-caps:normal;font-variant-numeric:normal;font-variant-alternates:normal;font-variant-east-asian:normal;font-feature-settings:normal;font-variation-settings:normal;text-indent:0;text-align:start;text-decoration:none;text-decoration-line:none;text-decoration-style:solid;text-decoration-color:#000;letter-spacing:normal;word-spacing:normal;text-transform:none;writing-mode:lr-tb;direction:ltr;text-orientation:mixed;dominant-baseline:auto;baseline-shift:baseline;text-anchor:start;white-space:normal;shape-padding:0;shape-margin:0;inline-size:0;clip-rule:nonzero;display:inline;overflow:visible;visibility:visible;isolation:auto;mix-blend-mode:normal;color-interpolation:sRGB;color-interpolation-filters:linearRGB;solid-color:#000;solid-opacity:1;vector-effect:none;fill:#909090;fill-opacity:1;fill-rule:nonzero;stroke:none;stroke-width:1.00157;stroke-linecap:round;stroke-linejoin:round;stroke-miterlimit:4;stroke-dasharray:none;stroke-dashoffset:531.552;stroke-opacity:1;paint-order:markers fill stroke;color-rendering:auto;image-rendering:auto;shape-rendering:auto;text-rendering:auto;enable-background:accumulate;stop-color:#000;stop-opacity:1;opacity:1"/><path id="path909" d="M 1.0585938 1.71875 A 0.1324995 0.1324995 0 0 0 0.92578125 1.8515625 A 0.1324995 0.1324995 0 0 0 1.0585938 1.984375 L 1.5878906 1.984375 A 0.1324995 0.1324995 0 0 0 1.7207031 1.8515625 A 0.1324995 0.1324995 0 0 0 1.5878906 1.71875 L 1.0585938 1.71875 z" style="color:#000;font-style:normal;font-variant:normal;font-weight:400;font-stretch:normal;font-size:medium;line-height:normal;font-family:sans-serif;font-variant-ligatures:normal;font-variant-position:normal;font-variant-caps:normal;font-variant-numeric:normal;font-variant-alternates:normal;font-variant-east-asian:normal;font-feature-settings:normal;font-variation-settings:normal;text-indent:0;text-align:start;text-decoration:none;text-decoration-line:none;text-decoration-style:solid;text-decoration-color:#000;letter-spacing:normal;word-spacing:normal;text-transform:none;writing-mode:lr-tb;direction:ltr;text-orientation:mixed;dominant-baseline:auto;baseline-shift:baseline;text-anchor:start;white-space:normal;shape-padding:0;shape-margin:0;inline-size:0;clip-rule:nonzero;display:inline;overflow:visible;visibility:visible;isolation:auto;mix-blend-mode:normal;color-interpolation:sRGB;color-interpolation-filters:linearRGB;solid-color:#000;solid-opacity:1;vector-effect:none;fill:#909090;fill-opacity:1;fill-rule:nonzero;stroke:none;stroke-width:.264999;stroke-linecap:round;stroke-linejoin:round;stroke-miterlimit:4;stroke-dasharray:none;stroke-dashoffset:531.552;stroke-opacity:1;paint-order:markers fill stroke;color-rendering:auto;image-rendering:auto;shape-rendering:auto;text-rendering:auto;enable-background:accumulate;stop-color:#000;stop-opacity:1;opacity:1"/><path id="path913" d="M 1.0585938 2.2480469 A 0.1324995 0.1324995 0 0 0 0.92578125 2.3808594 A 0.1324995 0.1324995 0 0 0 1.0585938 2.5136719 L 1.5878906 2.5136719 A 0.1324995 0.1324995 0 0 0 1.7207031 2.3808594 A 0.1324995 0.1324995 0 0 0 1.5878906 2.2480469 L 1.0585938 2.2480469 z" style="color:#000;font-style:normal;font-variant:normal;font-weight:400;font-stretch:normal;font-size:medium;line-height:normal;font-family:sans-serif;font-variant-ligatures:normal;font-variant-position:normal;font-variant-caps:normal;font-variant-numeric:normal;font-variant-alternates:normal;font-variant-east-asian:normal;font-feature-settings:normal;font-variation-settings:normal;text-indent:0;text-align:start;text-decoration:none;text-decoration-line:none;text-decoration-style:solid;text-decoration-color:#000;letter-spacing:normal;word-spacing:normal;text-transform:none;writing-mode:lr-tb;direction:ltr;text-orientation:mixed;dominant-baseline:auto;baseline-shift:baseline;text-anchor:start;white-space:normal;shape-padding:0;shape-margin:0;inline-size:0;clip-rule:nonzero;display:inline;overflow:visible;visibility:visible;isolation:auto;mix-blend-mode:normal;color-interpolation:sRGB;color-interpolation-filters:linearRGB;solid-color:#000;solid-opacity:1;vector-effect:none;fill:#909090;fill-opacity:1;fill-rule:nonzero;stroke:none;stroke-width:.264999;stroke-linecap:round;stroke-linejoin:round;stroke-miterlimit:4;stroke-dasharray:none;stroke-dashoffset:531.552;stroke-opacity:1;paint-order:markers fill stroke;color-rendering:auto;image-rendering:auto;shape-rendering:auto;text-rendering:auto;enable-background:accumulate;stop-color:#000;stop-opacity:1;opacity:1"/></g><path id="path924" style="opacity:1;fill:#fdbc4b;fill-opacity:1;stroke:none;stroke-width:.264583;stroke-linecap:round;stroke-linejoin:round;stroke-miterlimit:4;stroke-dasharray:none;stroke-dashoffset:531.552;stroke-opacity:1;paint-order:markers fill stroke" d="m -1.3252903,1.5032615 -0.4100651,0.6834418 a 0.12845631,0.12845631 60.481872 0 0 0.1101504,0.1945466 l 0.2495783,-10e-8 -0.1100188,0.5495576 a 0.08982544,0.08982544 21.142221 0 0 0.1651025,0.063848 L -0.91047797,2.3112131 A 0.12845634,0.12845634 60.481877 0 0 -1.0206284,2.1166665 H -1.2702067 L -1.1601879,1.567109 a 0.08982541,0.08982541 21.142225 0 0 -0.1651024,-0.063848 z"/><g id="g954" transform="matrix(0.38576851,0,0,0.38576851,152.56385,-12.494408)"><rect id="rect919" width="68.792" height="79.375" x="-357.188" y="-7.938" style="fill:#cacaca;fill-opacity:1;stroke-width:14.6855;stroke-linecap:square;stroke-linejoin:round;stroke-dashoffset:531.552"/><rect id="rect851" width="10.583" height="10.583" x="-354.542" y="-5.292" style="fill:#e74c3c;fill-opacity:1;stroke-width:14.955;stroke-linecap:square;stroke-linejoin:round;stroke-dashoffset:531.552"/><rect style="fill:#ed1515;fill-opacity:1;stroke-width:14.955;stroke-linecap:square;stroke-linejoin:round;stroke-dashoffset:531.552" id="rect853" width="10.583" height="10.583" x="-343.958" y="-5.292"/><rect id="rect855" width="10.583" height="10.583" x="-333.375" y="-5.292" style="fill:#f47750;fill-opacity:1;stroke-width:14.955;stroke-linecap:square;stroke-linejoin:round;stroke-dashoffset:531.552"/><rect style="fill:#fdbc4b;fill-opacity:1;stroke-width:14.955;stroke-linecap:square;stroke-linejoin:round;stroke-dashoffset:531.552" id="rect857" width="10.583" height="10.583" x="-322.792" y="-5.292"/><rect id="rect859" width="10.583" height="10.583" x="-312.208" y="-5.292" style="fill:#c9ce3b;fill-opacity:1;stroke-width:14.955;stroke-linecap:square;stroke-linejoin:round;stroke-dashoffset:531.552"/><rect style="fill:#da4453;fill-opacity:1;stroke-width:14.955;stroke-linecap:square;stroke-linejoin:round;stroke-dashoffset:531.552" id="rect861" width="10.583" height="10.583" x="-354.542" y="5.292"/><rect id="rect863" width="10.583" height="10.583" x="-343.958" y="5.292" style="fill:#c0392b;fill-opacity:1;stroke-width:14.955;stroke-linecap:square;stroke-linejoin:round;stroke-dashoffset:531.552"/><rect style="fill:#d35400;fill-opacity:1;stroke-width:14.955;stroke-linecap:square;stroke-linejoin:round;stroke-dashoffset:531.552" id="rect865" width="10.583" height="10.583" x="-333.375" y="5.292"/><rect id="rect867" width="10.583" height="10.583" x="-322.792" y="5.292" style="fill:#f67400;fill-opacity:1;stroke-width:14.955;stroke-linecap:square;stroke-linejoin:round;stroke-dashoffset:531.552"/><rect style="fill:#f39c1f;fill-opacity:1;stroke-width:14.955;stroke-linecap:square;stroke-linejoin:round;stroke-dashoffset:531.552" id="rect869" width="10.583" height="10.583" x="-312.208" y="5.292"/><rect style="fill:#1cdc9a;fill-opacity:1;stroke-width:14.955;stroke-linecap:square;stroke-linejoin:round;stroke-dashoffset:531.552" id="rect871" width="10.583" height="10.583" x="-354.542" y="21.167"/><rect id="rect873" width="10.583" height="10.583" x="-343.958" y="21.167" style="fill:#2ecc71;fill-opacity:1;stroke-width:14.955;stroke-linecap:square;stroke-linejoin:round;stroke-dashoffset:531.552"/><rect style="fill:#1abc9c;fill-opacity:1;stroke-width:14.955;stroke-linecap:square;stroke-linejoin:round;stroke-dashoffset:531.552" id="rect875" width="10.583" height="10.583" x="-333.375" y="21.167"/><rect id="rect877" width="10.583" height="10.583" x="-322.792" y="21.167" style="fill:#3498db;fill-opacity:1;stroke-width:14.955;stroke-linecap:square;stroke-linejoin:round;stroke-dashoffset:531.552"/><rect style="fill:#3daee9;fill-opacity:1;stroke-width:14.955;stroke-linecap:square;stroke-linejoin:round;stroke-dashoffset:531.552" id="rect879" width="10.583" height="10.583" x="-312.208" y="21.167"/><rect id="rect881" width="10.583" height="10.583" x="-354.542" y="31.75" style="fill:#10d116;fill-opacity:1;stroke-width:14.955;stroke-linecap:square;stroke-linejoin:round;stroke-dashoffset:531.552"/><rect style="fill:#27ae60;fill-opacity:1;stroke-width:14.955;stroke-linecap:square;stroke-linejoin:round;stroke-dashoffset:531.552" id="rect883" width="10.583" height="10.583" x="-343.958" y="31.75"/><rect id="rect885" width="10.583" height="10.583" x="-333.375" y="31.75" style="fill:#16a085;fill-opacity:1;stroke-width:14.955;stroke-linecap:square;stroke-linejoin:round;stroke-dashoffset:531.552"/><rect style="fill:#2980b9;fill-opacity:1;stroke-width:14.955;stroke-linecap:square;stroke-linejoin:round;stroke-dashoffset:531.552" id="rect887" width="10.583" height="10.583" x="-322.792" y="31.75"/><rect id="rect889" width="10.583" height="10.583" x="-312.208" y="31.75" style="fill:#1d99f3;fill-opacity:1;stroke-width:14.955;stroke-linecap:square;stroke-linejoin:round;stroke-dashoffset:531.552"/><rect id="rect891" width="10.583" height="10.583" x="-301.625" y="21.167" style="fill:#9b59b6;fill-opacity:1;stroke-width:14.955;stroke-linecap:square;stroke-linejoin:round;stroke-dashoffset:531.552"/><rect style="fill:#8e44ad;fill-opacity:1;stroke-width:14.955;stroke-linecap:square;stroke-linejoin:round;stroke-dashoffset:531.552" id="rect893" width="10.583" height="10.583" x="-301.625" y="31.75"/><rect id="rect895" width="10.583" height="10.583" x="-354.542" y="47.625" style="fill:#34495e;fill-opacity:1;stroke-width:14.955;stroke-linecap:square;stroke-linejoin:round;stroke-dashoffset:531.552"/><rect style="fill:#31363b;fill-opacity:1;stroke-width:14.955;stroke-linecap:square;stroke-linejoin:round;stroke-dashoffset:531.552" id="rect897" width="10.583" height="10.583" x="-343.958" y="47.625"/><rect id="rect899" width="10.583" height="10.583" x="-333.375" y="47.625" style="fill:#7f8c8d;fill-opacity:1;stroke-width:14.955;stroke-linecap:square;stroke-linejoin:round;stroke-dashoffset:531.552"/><rect style="fill:#bdc3c7;fill-opacity:1;stroke-width:14.955;stroke-linecap:square;stroke-linejoin:round;stroke-dashoffset:531.552" id="rect901" width="10.583" height="10.583" x="-322.792" y="47.625"/><rect id="rect903" width="10.583" height="10.583" x="-312.208" y="47.625" style="fill:#fcfcfc;fill-opacity:1;stroke-width:14.955;stroke-linecap:square;stroke-linejoin:round;stroke-dashoffset:531.552"/><rect style="fill:#2c3e50;fill-opacity:1;stroke-width:14.955;stroke-linecap:square;stroke-linejoin:round;stroke-dashoffset:531.552" id="rect905" width="10.583" height="10.583" x="-354.542" y="58.208"/><rect id="rect907" width="10.583" height="10.583" x="-343.958" y="58.208" style="fill:#232629;fill-opacity:1;stroke-width:14.955;stroke-linecap:square;stroke-linejoin:round;stroke-dashoffset:531.552"/><rect style="fill:#4d4d4d;fill-opacity:1;stroke-width:14.955;stroke-linecap:square;stroke-linejoin:round;stroke-dashoffset:531.552" id="rect909" width="10.583" height="10.583" x="-333.375" y="58.208"/><rect id="rect911" width="10.583" height="10.583" x="-322.792" y="58.208" style="fill:#95a5a6;fill-opacity:1;stroke-width:14.955;stroke-linecap:square;stroke-linejoin:round;stroke-dashoffset:531.552"/><rect style="fill:#eff0f1;fill-opacity:1;stroke-width:14.955;stroke-linecap:square;stroke-linejoin:round;stroke-dashoffset:531.552" id="rect913" width="10.583" height="10.583" x="-312.208" y="58.208"/></g><path id="path887" d="M 13.994141 4.5 A 0.49999949 0.49999949 0 0 0 13.552734 4.7773438 A 0.49999949 0.49999949 0 0 0 13.777344 5.4472656 L 14.908203 6.0136719 C 15.328243 6.2241517 15.636226 6.6066586 15.75 7.0625 L 17.390625 13.623047 C 15.381402 13.909129 13.837817 15.475476 13.601562 17.5 L 8.3984375 17.5 C 8.1378934 15.267332 6.3043435 13.50201 4.0039062 13.5 C 3.982495 13.499838 3.9608645 13.499856 3.9394531 13.5 L 2 13.5 A 0.49999949 0.49999949 0 0 0 1.5 14 A 0.49999949 0.49999949 0 0 0 2 14.5 L 3.9394531 14.5 A 0.50004949 0.50004949 0 0 0 3.9433594 14.5 C 3.9610145 14.499866 3.9784387 14.499866 3.9960938 14.5 A 0.50004949 0.50004949 0 0 0 4 14.5 C 5.9389193 14.5 7.5000003 16.061081 7.5 18 A 0.50004949 0.50004949 0 0 0 8 18.5 L 14 18.5 A 0.50004949 0.50004949 0 0 0 14.5 18 C 14.5 16.061081 16.061081 14.5 18 14.5 A 0.50004949 0.50004949 0 0 0 18.484375 13.878906 L 16.71875 6.8203125 C 16.534472 6.0819921 16.037756 5.460052 15.357422 5.1191406 A 0.50004949 0.50004949 0 0 0 15.355469 5.1191406 L 14.222656 4.5527344 A 0.49999949 0.49999949 0 0 0 13.994141 4.5 z" transform="scale(0.26458333)" style="color:#000;font-style:normal;font-variant:normal;font-weight:400;font-stretch:normal;font-size:medium;line-height:normal;font-family:sans-serif;font-variant-ligatures:normal;font-variant-position:normal;font-variant-caps:normal;font-variant-numeric:normal;font-variant-alternates:normal;font-variant-east-asian:normal;font-feature-settings:normal;font-variation-settings:normal;text-indent:0;text-align:start;text-decoration:none;text-decoration-line:none;text-decoration-style:solid;text-decoration-color:#000;letter-spacing:normal;word-spacing:normal;text-transform:none;writing-mode:lr-tb;direction:ltr;text-orientation:mixed;dominant-baseline:auto;baseline-shift:baseline;text-anchor:start;white-space:normal;shape-padding:0;shape-margin:0;inline-size:0;clip-rule:nonzero;display:inline;overflow:visible;visibility:visible;isolation:auto;mix-blend-mode:normal;color-interpolation:sRGB;color-interpolation-filters:linearRGB;solid-color:#000;solid-opacity:1;vector-effect:none;fill:#fff;fill-opacity:1;fill-rule:nonzero;stroke:none;stroke-width:1.00157481;stroke-linecap:round;stroke-linejoin:round;stroke-miterlimit:4;stroke-dasharray:none;stroke-dashoffset:531.552;stroke-opacity:1;paint-order:markers fill stroke;color-rendering:auto;image-rendering:auto;shape-rendering:auto;text-rendering:auto;enable-background:accumulate;stop-color:#000;stop-opacity:1;opacity:1"/><path id="path970" d="M 4.7617188 4.1367188 C 4.4265639 4.1367188 4.1523438 4.4109389 4.1523438 4.7460938 C 4.1523438 5.0812486 4.4265639 5.3554687 4.7617188 5.3554688 C 5.0968736 5.3554687 5.3710937 5.0812486 5.3710938 4.7460938 C 5.3710937 4.4109389 5.0968736 4.1367188 4.7617188 4.1367188 z M 4.7617188 4.3378906 C 4.9879388 4.3378906 5.1679687 4.5198737 5.1679688 4.7460938 C 5.1679687 4.9723138 4.9879388 5.1542969 4.7617188 5.1542969 C 4.5354987 5.1542969 4.3535156 4.9723138 4.3535156 4.7460938 C 4.3535156 4.5198737 4.5354987 4.3378906 4.7617188 4.3378906 z" style="color:#000;font-style:normal;font-variant:normal;font-weight:400;font-stretch:normal;font-size:medium;line-height:normal;font-family:sans-serif;font-variant-ligatures:normal;font-variant-position:normal;font-variant-caps:normal;font-variant-numeric:normal;font-variant-alternates:normal;font-variant-east-asian:normal;font-feature-settings:normal;font-variation-settings:normal;text-indent:0;text-align:start;text-decoration:none;text-decoration-line:none;text-decoration-style:solid;text-decoration-color:#000;letter-spacing:normal;word-spacing:normal;text-transform:none;writing-mode:lr-tb;direction:ltr;text-orientation:mixed;dominant-baseline:auto;baseline-shift:baseline;text-anchor:start;white-space:normal;shape-padding:0;shape-margin:0;inline-size:0;clip-rule:nonzero;display:inline;overflow:visible;visibility:visible;isolation:auto;mix-blend-mode:normal;color-interpolation:sRGB;color-interpolation-filters:linearRGB;solid-color:#000;solid-opacity:1;vector-effect:none;fill:#fff;fill-opacity:1;fill-rule:nonzero;stroke:none;stroke-width:.201567;stroke-linecap:butt;stroke-linejoin:round;stroke-miterlimit:4;stroke-dasharray:none;stroke-dashoffset:0;stroke-opacity:1;paint-order:stroke fill markers;color-rendering:auto;image-rendering:auto;shape-rendering:auto;text-rendering:auto;enable-background:accumulate;stop-color:#000;stop-opacity:1;opacity:.997"/><path style="color:#000;font-style:normal;font-variant:normal;font-weight:400;font-stretch:normal;font-size:medium;line-height:normal;font-family:sans-serif;font-variant-ligatures:normal;font-variant-position:normal;font-variant-caps:normal;font-variant-numeric:normal;font-variant-alternates:normal;font-variant-east-asian:normal;font-feature-settings:normal;font-variation-settings:normal;text-indent:0;text-align:start;text-decoration:none;text-decoration-line:none;text-decoration-style:solid;text-decoration-color:#000;letter-spacing:normal;word-spacing:normal;text-transform:none;writing-mode:lr-tb;direction:ltr;text-orientation:mixed;dominant-baseline:auto;baseline-shift:baseline;text-anchor:start;white-space:normal;shape-padding:0;shape-margin:0;inline-size:0;clip-rule:nonzero;display:inline;overflow:visible;visibility:visible;opacity:.997;isolation:auto;mix-blend-mode:normal;color-interpolation:sRGB;color-interpolation-filters:linearRGB;solid-color:#000;solid-opacity:1;vector-effect:none;fill:#fff;fill-opacity:1;fill-rule:nonzero;stroke:none;stroke-width:.201567;stroke-linecap:butt;stroke-linejoin:round;stroke-miterlimit:4;stroke-dasharray:none;stroke-dashoffset:0;stroke-opacity:1;paint-order:stroke fill markers;color-rendering:auto;image-rendering:auto;shape-rendering:auto;text-rendering:auto;enable-background:accumulate;stop-color:#000;stop-opacity:1" id="path970-7" d="m 1.0221536,4.1367188 c -0.33515491,0 -0.60937501,0.2742201 -0.60937501,0.609375 0,0.3351548 0.2742201,0.6093749 0.60937501,0.609375 0.3351548,-10e-8 0.6093749,-0.2742202 0.609375,-0.609375 -1e-7,-0.3351549 -0.2742202,-0.609375 -0.609375,-0.609375 z m 0,0.2011718 c 0.22622,0 0.4062499,0.1819831 0.40625,0.4082032 -1e-7,0.2262201 -0.18003,0.4082031 -0.40625,0.4082031 -0.22622011,0 -0.40820321,-0.181983 -0.40820321,-0.4082031 0,-0.2262201 0.1819831,-0.4082032 0.40820321,-0.4082032 z"/></g></svg>