<svg xmlns="http://www.w3.org/2000/svg" xmlns:svg="http://www.w3.org/2000/svg" id="svg8" width="22" height="22" version="1.1" viewBox="0 0 5.821 5.821"><metadata id="metadata5"/><g id="layer1"><g id="g954" transform="matrix(0.38576851,0,0,0.38576851,152.56385,-12.494408)"><rect id="rect919" width="68.792" height="79.375" x="-357.188" y="-7.938" style="fill:#cacaca;fill-opacity:1;stroke-width:14.6855;stroke-linecap:square;stroke-linejoin:round;stroke-dashoffset:531.552"/><rect id="rect851" width="10.583" height="10.583" x="-354.542" y="-5.292" style="fill:#e74c3c;fill-opacity:1;stroke-width:14.955;stroke-linecap:square;stroke-linejoin:round;stroke-dashoffset:531.552"/><rect style="fill:#ed1515;fill-opacity:1;stroke-width:14.955;stroke-linecap:square;stroke-linejoin:round;stroke-dashoffset:531.552" id="rect853" width="10.583" height="10.583" x="-343.958" y="-5.292"/><rect id="rect855" width="10.583" height="10.583" x="-333.375" y="-5.292" style="fill:#f47750;fill-opacity:1;stroke-width:14.955;stroke-linecap:square;stroke-linejoin:round;stroke-dashoffset:531.552"/><rect style="fill:#fdbc4b;fill-opacity:1;stroke-width:14.955;stroke-linecap:square;stroke-linejoin:round;stroke-dashoffset:531.552" id="rect857" width="10.583" height="10.583" x="-322.792" y="-5.292"/><rect id="rect859" width="10.583" height="10.583" x="-312.208" y="-5.292" style="fill:#c9ce3b;fill-opacity:1;stroke-width:14.955;stroke-linecap:square;stroke-linejoin:round;stroke-dashoffset:531.552"/><rect style="fill:#da4453;fill-opacity:1;stroke-width:14.955;stroke-linecap:square;stroke-linejoin:round;stroke-dashoffset:531.552" id="rect861" width="10.583" height="10.583" x="-354.542" y="5.292"/><rect id="rect863" width="10.583" height="10.583" x="-343.958" y="5.292" style="fill:#c0392b;fill-opacity:1;stroke-width:14.955;stroke-linecap:square;stroke-linejoin:round;stroke-dashoffset:531.552"/><rect style="fill:#d35400;fill-opacity:1;stroke-width:14.955;stroke-linecap:square;stroke-linejoin:round;stroke-dashoffset:531.552" id="rect865" width="10.583" height="10.583" x="-333.375" y="5.292"/><rect id="rect867" width="10.583" height="10.583" x="-322.792" y="5.292" style="fill:#f67400;fill-opacity:1;stroke-width:14.955;stroke-linecap:square;stroke-linejoin:round;stroke-dashoffset:531.552"/><rect style="fill:#f39c1f;fill-opacity:1;stroke-width:14.955;stroke-linecap:square;stroke-linejoin:round;stroke-dashoffset:531.552" id="rect869" width="10.583" height="10.583" x="-312.208" y="5.292"/><rect style="fill:#1cdc9a;fill-opacity:1;stroke-width:14.955;stroke-linecap:square;stroke-linejoin:round;stroke-dashoffset:531.552" id="rect871" width="10.583" height="10.583" x="-354.542" y="21.167"/><rect id="rect873" width="10.583" height="10.583" x="-343.958" y="21.167" style="fill:#2ecc71;fill-opacity:1;stroke-width:14.955;stroke-linecap:square;stroke-linejoin:round;stroke-dashoffset:531.552"/><rect style="fill:#1abc9c;fill-opacity:1;stroke-width:14.955;stroke-linecap:square;stroke-linejoin:round;stroke-dashoffset:531.552" id="rect875" width="10.583" height="10.583" x="-333.375" y="21.167"/><rect id="rect877" width="10.583" height="10.583" x="-322.792" y="21.167" style="fill:#3498db;fill-opacity:1;stroke-width:14.955;stroke-linecap:square;stroke-linejoin:round;stroke-dashoffset:531.552"/><rect style="fill:#3daee9;fill-opacity:1;stroke-width:14.955;stroke-linecap:square;stroke-linejoin:round;stroke-dashoffset:531.552" id="rect879" width="10.583" height="10.583" x="-312.208" y="21.167"/><rect id="rect881" width="10.583" height="10.583" x="-354.542" y="31.75" style="fill:#10d116;fill-opacity:1;stroke-width:14.955;stroke-linecap:square;stroke-linejoin:round;stroke-dashoffset:531.552"/><rect style="fill:#27ae60;fill-opacity:1;stroke-width:14.955;stroke-linecap:square;stroke-linejoin:round;stroke-dashoffset:531.552" id="rect883" width="10.583" height="10.583" x="-343.958" y="31.75"/><rect id="rect885" width="10.583" height="10.583" x="-333.375" y="31.75" style="fill:#16a085;fill-opacity:1;stroke-width:14.955;stroke-linecap:square;stroke-linejoin:round;stroke-dashoffset:531.552"/><rect style="fill:#2980b9;fill-opacity:1;stroke-width:14.955;stroke-linecap:square;stroke-linejoin:round;stroke-dashoffset:531.552" id="rect887" width="10.583" height="10.583" x="-322.792" y="31.75"/><rect id="rect889" width="10.583" height="10.583" x="-312.208" y="31.75" style="fill:#1d99f3;fill-opacity:1;stroke-width:14.955;stroke-linecap:square;stroke-linejoin:round;stroke-dashoffset:531.552"/><rect id="rect891" width="10.583" height="10.583" x="-301.625" y="21.167" style="fill:#9b59b6;fill-opacity:1;stroke-width:14.955;stroke-linecap:square;stroke-linejoin:round;stroke-dashoffset:531.552"/><rect style="fill:#8e44ad;fill-opacity:1;stroke-width:14.955;stroke-linecap:square;stroke-linejoin:round;stroke-dashoffset:531.552" id="rect893" width="10.583" height="10.583" x="-301.625" y="31.75"/><rect id="rect895" width="10.583" height="10.583" x="-354.542" y="47.625" style="fill:#34495e;fill-opacity:1;stroke-width:14.955;stroke-linecap:square;stroke-linejoin:round;stroke-dashoffset:531.552"/><rect style="fill:#31363b;fill-opacity:1;stroke-width:14.955;stroke-linecap:square;stroke-linejoin:round;stroke-dashoffset:531.552" id="rect897" width="10.583" height="10.583" x="-343.958" y="47.625"/><rect id="rect899" width="10.583" height="10.583" x="-333.375" y="47.625" style="fill:#7f8c8d;fill-opacity:1;stroke-width:14.955;stroke-linecap:square;stroke-linejoin:round;stroke-dashoffset:531.552"/><rect style="fill:#bdc3c7;fill-opacity:1;stroke-width:14.955;stroke-linecap:square;stroke-linejoin:round;stroke-dashoffset:531.552" id="rect901" width="10.583" height="10.583" x="-322.792" y="47.625"/><rect id="rect903" width="10.583" height="10.583" x="-312.208" y="47.625" style="fill:#fcfcfc;fill-opacity:1;stroke-width:14.955;stroke-linecap:square;stroke-linejoin:round;stroke-dashoffset:531.552"/><rect style="fill:#2c3e50;fill-opacity:1;stroke-width:14.955;stroke-linecap:square;stroke-linejoin:round;stroke-dashoffset:531.552" id="rect905" width="10.583" height="10.583" x="-354.542" y="58.208"/><rect id="rect907" width="10.583" height="10.583" x="-343.958" y="58.208" style="fill:#232629;fill-opacity:1;stroke-width:14.955;stroke-linecap:square;stroke-linejoin:round;stroke-dashoffset:531.552"/><rect style="fill:#4d4d4d;fill-opacity:1;stroke-width:14.955;stroke-linecap:square;stroke-linejoin:round;stroke-dashoffset:531.552" id="rect909" width="10.583" height="10.583" x="-333.375" y="58.208"/><rect id="rect911" width="10.583" height="10.583" x="-322.792" y="58.208" style="fill:#95a5a6;fill-opacity:1;stroke-width:14.955;stroke-linecap:square;stroke-linejoin:round;stroke-dashoffset:531.552"/><rect style="fill:#eff0f1;fill-opacity:1;stroke-width:14.955;stroke-linecap:square;stroke-linejoin:round;stroke-dashoffset:531.552" id="rect913" width="10.583" height="10.583" x="-312.208" y="58.208"/></g><path style="fill:#fff;fill-opacity:1;stroke-width:.196349" id="path51" d="M 1.8042087,1.0709424 C 1.9783861,0.94322723 2.0164009,0.69622363 1.8886857,0.52204593 1.7609704,0.34786823 1.5139667,0.30985363 1.3397894,0.43756873 1.1656114,0.56528423 1.1275967,0.81228773 1.2553124,0.98646553 1.3830273,1.1606434 1.6300308,1.198658 1.8042087,1.0709424 Z M 0.89628461,3.3192757 C 0.4529229,3.6443694 0.35999832,4.2481554 0.68509192,4.6915169 1.0101856,5.1348783 1.6139715,5.2278033 2.0573332,4.9027093 2.5006949,4.5776158 2.5936197,3.9738298 2.2685259,3.5304682 1.9434323,3.0871067 1.3396463,2.9941819 0.89628461,3.3192757 Z M 1.883176,4.6651945 C 1.5823234,4.8857933 1.143206,4.8182123 0.92260684,4.5173598 0.70200762,4.2165074 0.76958946,3.77739 1.0704419,3.5567908 1.3712945,3.3361914 1.8104113,3.4037735 2.0310104,3.7046258 2.2516097,4.0054783 2.1840285,4.4445951 1.883176,4.6651945 Z M 1.6405189,2.4083524 1.7418913,1.7496767 1.9614496,1.7834677 c 0.3567831,0.05491 0.7188509,-0.015794 1.051372,-0.2596139 L 2.7806119,1.2071669 C 2.5430963,1.3813245 2.2834214,1.4256443 2.0364186,1.3876293 L 1.5149667,1.3073761 C 1.3893532,1.3020906 1.2869605,1.3284748 1.1919542,1.3981379 1.0969485,1.4678006 1.0409979,1.5575218 1.0399363,1.6556909 L 0.92166874,2.4241458 c -0.0168959,0.1097797 0.009488,0.2121721 0.0675406,0.2913438 0.0696627,0.095006 0.15938086,0.150959 0.25755306,0.1520177 L 2.0785546,2.9393333 2.6590789,3.7310504 2.9757655,3.4988407 2.2559153,2.5171116 Z M 3.1130918,1.6938078 C 2.6697307,2.0189011 2.5768054,2.6226876 2.9018991,3.0660491 3.2269927,3.5094107 3.8307793,3.602335 4.2741404,3.2772417 4.7175021,2.952148 4.8104268,2.348362 4.4853331,1.9050004 4.1602394,1.4616389 3.5564535,1.368714 3.1130918,1.6938078 Z M 4.0999832,3.0397266 C 3.7991307,3.2603259 3.3600139,3.1927439 3.1394147,2.8918914 2.9188155,2.5910391 2.9863967,2.1519221 3.2872491,1.9313229 3.5881015,1.7107237 4.0272189,1.7783052 4.2478182,2.0791576 4.4684174,2.38001 4.4008356,2.8191274 4.0999832,3.0397266 Z"/><path style="color:#000;font-style:normal;font-variant:normal;font-weight:400;font-stretch:normal;font-size:medium;line-height:normal;font-family:sans-serif;font-variant-ligatures:normal;font-variant-position:normal;font-variant-caps:normal;font-variant-numeric:normal;font-variant-alternates:normal;font-variant-east-asian:normal;font-feature-settings:normal;font-variation-settings:normal;text-indent:0;text-align:start;text-decoration:none;text-decoration-line:none;text-decoration-style:solid;text-decoration-color:#000;letter-spacing:normal;word-spacing:normal;text-transform:none;writing-mode:lr-tb;direction:ltr;text-orientation:mixed;dominant-baseline:auto;baseline-shift:baseline;text-anchor:start;white-space:normal;shape-padding:0;shape-margin:0;inline-size:0;clip-rule:nonzero;display:inline;overflow:visible;visibility:visible;opacity:1;isolation:auto;mix-blend-mode:normal;color-interpolation:sRGB;color-interpolation-filters:linearRGB;solid-color:#000;solid-opacity:1;vector-effect:none;fill:#fff;fill-opacity:1;fill-rule:nonzero;stroke:none;stroke-width:.264583px;stroke-linecap:butt;stroke-linejoin:miter;stroke-miterlimit:4;stroke-dasharray:none;stroke-dashoffset:0;stroke-opacity:1;color-rendering:auto;image-rendering:auto;shape-rendering:auto;text-rendering:auto;enable-background:accumulate;stop-color:#000;stop-opacity:1" id="path920" d="M 6.2355927,2.3458251 4.366485,3.4225311 3.0292969,4.9121094 2.0999371,5.0657395 1.5371094,5.4570312 -0.2265625,5.8183594 -0.17382812,6.0761719 1.7207031,5.6914062 2.2796245,5.3059739 3.21875,5.1503906 4.5637507,3.639328 6.4484834,2.5587157 Z"/></g></svg>