<svg xmlns="http://www.w3.org/2000/svg" xmlns:svg="http://www.w3.org/2000/svg" id="svg10" width="22" height="22" x="0" y="0" fill="#000" enable-background="new 0 0 99.316 99.997" version="1.0" viewBox="0 0 21.85 21.999" xml:space="preserve"><metadata id="metadata16"/><path id="path2" style="fill:#fff;stroke-width:.20758" d="m 18.296044,13.516712 c -1.017125,-0.01824 -1.903328,0.770666 -2.945647,0.500454 -0.952298,-0.271819 -1.950516,-0.765534 -2.949277,-0.338881 -0.938402,0.492101 -2.078868,0.493759 -3.017025,0 C 8.3845167,13.251481 7.3852162,13.744815 6.4321693,14.017166 5.229901,14.31201 4.2005498,13.256398 2.9984219,13.558671 2.2076549,13.806805 1.0222411,14.11299 1.0222411,14.11299 v 1.764949 c 1.0226762,0.01947 1.9128198,-0.776355 2.9601398,-0.498166 0.4416703,0.216761 1.6682446,0.3639 1.6529583,0.601941 l -1.3879215,1.383539 c -0.7385797,-0.502111 -1.5118619,0.0527 -1.9901253,0.625328 -0.5087615,0.568011 -1.1635382,1.025896 -1.5505475,1.687065 -0.44607206,0.952772 0.6576964,2.056499 1.6104671,1.610525 0.7016688,-0.428027 1.2006595,-1.122907 1.8093513,-1.672458 0.6218606,-0.429609 0.7776032,-1.247655 0.6297837,-1.861615 l 2.0038313,-1.999046 c 0.9553792,-0.44042 2.0942104,-0.606317 3.0559286,-0.07975 0.9566571,0.429062 1.9815791,0.09313 2.8934291,-0.263824 1.038124,-0.339466 1.95525,0.382078 2.955963,0.461915 1.087184,0.105691 2.019821,-0.784126 3.121615,-0.493622 0.55673,-0.01509 1.943197,1.034046 1.977683,0.148315 v -1.471252 c -0.878739,0.05089 -1.592095,-0.588897 -2.468753,-0.540124 z"/><path id="path4" style="fill:#fff;stroke-width:.20758" d="M 19.135498,4.6094374 C 19.777729,3.9239548 20.518106,3.3189058 21.090567,2.5760423 21.630775,1.6723294 20.631775,0.46345938 19.642408,0.81572972 18.952145,1.1177762 18.525406,1.7968856 17.966518,2.2833866 17.44088,2.7777653 16.748383,3.4079168 17.123672,4.2079927 17.316456,4.5791871 16.670933,4.8230987 16.479267,5.1359209 L 15.065885,6.5509368 C 13.459538,5.9569743 11.849312,5.3583867 10.246781,4.7652258 9.2045735,4.5310231 8.2546176,5.3827898 8.1060604,6.3824119 7.7002321,7.7689937 7.2645314,9.1479847 6.8776693,10.539386 h -5.851069 v 2.366209 c 1.0341353,-0.06583 1.9719234,-0.790016 3.0482038,-0.491433 0.8514673,0.182595 1.7032854,0.742921 2.5975093,0.377297 1.0893234,-0.553582 2.4097276,-0.562618 3.4983496,-0.0022 0.895986,0.368665 1.751474,-0.190407 2.60469,-0.37517 1.078334,-0.302717 2.015803,0.427862 3.051521,0.490909 0.985146,-0.07753 1.867505,-0.470806 2.884112,-0.579104 0.847652,-0.0903 2.163908,-1.785603 2.163908,-1.785603 0,0 -1.819193,-0.01538 -2.935123,0.0029 -1.990467,-2.45e-4 -3.980934,-0.0021 -5.9714,-0.0044 l 2.483907,-2.4814163 c 0.762424,0.5726687 1.957001,-0.3877847 1.20272,-1.1977389 l 2.032212,-2.039685 c 0.462782,0.2519942 1.079225,0.1706574 1.448288,-0.2104864 z m -8.060346,5.9299486 c -0.486522,0.101516 -0.612149,-0.06543 -0.374498,-0.502616 l 0.909432,-3.029364 2.189559,0.8099787 z"/><path id="path851" style="fill:#fff;stroke-width:1.16861" d="m 12.520186,2.6733336 c 0.05505,1.1807821 -1.406378,2.0132887 -2.394197,1.3656163 -1.0445314,-0.553724 -1.0179219,-2.235304 0.04332,-2.7559413 1.018447,-0.59197226 2.378758,0.20782 2.350878,1.390325 z"/></svg>