<svg xmlns="http://www.w3.org/2000/svg" xmlns:svg="http://www.w3.org/2000/svg" id="svg8" width="22" height="22" version="1.1" viewBox="0 0 5.821 5.821"><metadata id="metadata5"/><g id="layer1"><g id="g954" transform="matrix(0.38576851,0,0,0.38576851,152.56385,-12.494408)"><rect style="fill:#cacaca;fill-opacity:1;stroke-width:14.6855;stroke-linecap:square;stroke-linejoin:round;stroke-dashoffset:531.552" id="rect919" width="68.792" height="79.375" x="-357.188" y="-7.938"/><rect style="fill:#e74c3c;fill-opacity:1;stroke-width:14.955;stroke-linecap:square;stroke-linejoin:round;stroke-dashoffset:531.552" id="rect851" width="10.583" height="10.583" x="-354.542" y="-5.292"/><rect id="rect853" width="10.583" height="10.583" x="-343.958" y="-5.292" style="fill:#ed1515;fill-opacity:1;stroke-width:14.955;stroke-linecap:square;stroke-linejoin:round;stroke-dashoffset:531.552"/><rect style="fill:#f47750;fill-opacity:1;stroke-width:14.955;stroke-linecap:square;stroke-linejoin:round;stroke-dashoffset:531.552" id="rect855" width="10.583" height="10.583" x="-333.375" y="-5.292"/><rect id="rect857" width="10.583" height="10.583" x="-322.792" y="-5.292" style="fill:#fdbc4b;fill-opacity:1;stroke-width:14.955;stroke-linecap:square;stroke-linejoin:round;stroke-dashoffset:531.552"/><rect style="fill:#c9ce3b;fill-opacity:1;stroke-width:14.955;stroke-linecap:square;stroke-linejoin:round;stroke-dashoffset:531.552" id="rect859" width="10.583" height="10.583" x="-312.208" y="-5.292"/><rect id="rect861" width="10.583" height="10.583" x="-354.542" y="5.292" style="fill:#da4453;fill-opacity:1;stroke-width:14.955;stroke-linecap:square;stroke-linejoin:round;stroke-dashoffset:531.552"/><rect style="fill:#c0392b;fill-opacity:1;stroke-width:14.955;stroke-linecap:square;stroke-linejoin:round;stroke-dashoffset:531.552" id="rect863" width="10.583" height="10.583" x="-343.958" y="5.292"/><rect id="rect865" width="10.583" height="10.583" x="-333.375" y="5.292" style="fill:#d35400;fill-opacity:1;stroke-width:14.955;stroke-linecap:square;stroke-linejoin:round;stroke-dashoffset:531.552"/><rect style="fill:#f67400;fill-opacity:1;stroke-width:14.955;stroke-linecap:square;stroke-linejoin:round;stroke-dashoffset:531.552" id="rect867" width="10.583" height="10.583" x="-322.792" y="5.292"/><rect id="rect869" width="10.583" height="10.583" x="-312.208" y="5.292" style="fill:#f39c1f;fill-opacity:1;stroke-width:14.955;stroke-linecap:square;stroke-linejoin:round;stroke-dashoffset:531.552"/><rect id="rect871" width="10.583" height="10.583" x="-354.542" y="21.167" style="fill:#1cdc9a;fill-opacity:1;stroke-width:14.955;stroke-linecap:square;stroke-linejoin:round;stroke-dashoffset:531.552"/><rect style="fill:#2ecc71;fill-opacity:1;stroke-width:14.955;stroke-linecap:square;stroke-linejoin:round;stroke-dashoffset:531.552" id="rect873" width="10.583" height="10.583" x="-343.958" y="21.167"/><rect id="rect875" width="10.583" height="10.583" x="-333.375" y="21.167" style="fill:#1abc9c;fill-opacity:1;stroke-width:14.955;stroke-linecap:square;stroke-linejoin:round;stroke-dashoffset:531.552"/><rect style="fill:#3498db;fill-opacity:1;stroke-width:14.955;stroke-linecap:square;stroke-linejoin:round;stroke-dashoffset:531.552" id="rect877" width="10.583" height="10.583" x="-322.792" y="21.167"/><rect id="rect879" width="10.583" height="10.583" x="-312.208" y="21.167" style="fill:#3daee9;fill-opacity:1;stroke-width:14.955;stroke-linecap:square;stroke-linejoin:round;stroke-dashoffset:531.552"/><rect style="fill:#10d116;fill-opacity:1;stroke-width:14.955;stroke-linecap:square;stroke-linejoin:round;stroke-dashoffset:531.552" id="rect881" width="10.583" height="10.583" x="-354.542" y="31.75"/><rect id="rect883" width="10.583" height="10.583" x="-343.958" y="31.75" style="fill:#27ae60;fill-opacity:1;stroke-width:14.955;stroke-linecap:square;stroke-linejoin:round;stroke-dashoffset:531.552"/><rect style="fill:#16a085;fill-opacity:1;stroke-width:14.955;stroke-linecap:square;stroke-linejoin:round;stroke-dashoffset:531.552" id="rect885" width="10.583" height="10.583" x="-333.375" y="31.75"/><rect id="rect887" width="10.583" height="10.583" x="-322.792" y="31.75" style="fill:#2980b9;fill-opacity:1;stroke-width:14.955;stroke-linecap:square;stroke-linejoin:round;stroke-dashoffset:531.552"/><rect style="fill:#1d99f3;fill-opacity:1;stroke-width:14.955;stroke-linecap:square;stroke-linejoin:round;stroke-dashoffset:531.552" id="rect889" width="10.583" height="10.583" x="-312.208" y="31.75"/><rect style="fill:#9b59b6;fill-opacity:1;stroke-width:14.955;stroke-linecap:square;stroke-linejoin:round;stroke-dashoffset:531.552" id="rect891" width="10.583" height="10.583" x="-301.625" y="21.167"/><rect id="rect893" width="10.583" height="10.583" x="-301.625" y="31.75" style="fill:#8e44ad;fill-opacity:1;stroke-width:14.955;stroke-linecap:square;stroke-linejoin:round;stroke-dashoffset:531.552"/><rect style="fill:#34495e;fill-opacity:1;stroke-width:14.955;stroke-linecap:square;stroke-linejoin:round;stroke-dashoffset:531.552" id="rect895" width="10.583" height="10.583" x="-354.542" y="47.625"/><rect id="rect897" width="10.583" height="10.583" x="-343.958" y="47.625" style="fill:#31363b;fill-opacity:1;stroke-width:14.955;stroke-linecap:square;stroke-linejoin:round;stroke-dashoffset:531.552"/><rect style="fill:#7f8c8d;fill-opacity:1;stroke-width:14.955;stroke-linecap:square;stroke-linejoin:round;stroke-dashoffset:531.552" id="rect899" width="10.583" height="10.583" x="-333.375" y="47.625"/><rect id="rect901" width="10.583" height="10.583" x="-322.792" y="47.625" style="fill:#bdc3c7;fill-opacity:1;stroke-width:14.955;stroke-linecap:square;stroke-linejoin:round;stroke-dashoffset:531.552"/><rect style="fill:#fcfcfc;fill-opacity:1;stroke-width:14.955;stroke-linecap:square;stroke-linejoin:round;stroke-dashoffset:531.552" id="rect903" width="10.583" height="10.583" x="-312.208" y="47.625"/><rect id="rect905" width="10.583" height="10.583" x="-354.542" y="58.208" style="fill:#2c3e50;fill-opacity:1;stroke-width:14.955;stroke-linecap:square;stroke-linejoin:round;stroke-dashoffset:531.552"/><rect style="fill:#232629;fill-opacity:1;stroke-width:14.955;stroke-linecap:square;stroke-linejoin:round;stroke-dashoffset:531.552" id="rect907" width="10.583" height="10.583" x="-343.958" y="58.208"/><rect id="rect909" width="10.583" height="10.583" x="-333.375" y="58.208" style="fill:#4d4d4d;fill-opacity:1;stroke-width:14.955;stroke-linecap:square;stroke-linejoin:round;stroke-dashoffset:531.552"/><rect style="fill:#95a5a6;fill-opacity:1;stroke-width:14.955;stroke-linecap:square;stroke-linejoin:round;stroke-dashoffset:531.552" id="rect911" width="10.583" height="10.583" x="-322.792" y="58.208"/><rect id="rect913" width="10.583" height="10.583" x="-312.208" y="58.208" style="fill:#eff0f1;fill-opacity:1;stroke-width:14.955;stroke-linecap:square;stroke-linejoin:round;stroke-dashoffset:531.552"/></g><path id="path17" style="fill:#fff;fill-opacity:1;stroke:none;stroke-width:.730205;stroke-opacity:1" d="m 12.521484,5.0957031 c -0.795342,0 -1.447265,0.6634257 -1.447265,1.4746094 0,0.811183 0.651923,1.4746094 1.447265,1.4746094 0.795342,0 1.445313,-0.663426 1.445313,-1.4746094 0,-0.8111837 -0.649971,-1.4746094 -1.445313,-1.4746094 z m 5.697266,2.2871094 c -1.005293,9.03e-5 -1.820222,0.8150191 -1.820312,1.8203125 0.001,0.2581612 0.02839,0.6283924 0.303378,0.93547 L 15.712713,10.886411 13.488221,8.9477292 10.263672,8.5957031 7.5078513,10.338038 5.7695312,12.576172 c -0.3754732,0.661347 0.1816517,1.249724 0.7773438,0.966797 l 1.7128929,-2.075723 1.9003931,-1.220112 -0.5761766,4.110288 -2.5878906,5.929687 1.484375,-0.0293 c 0.4801983,-0.907334 2.5996092,-5.441406 2.5996092,-5.441406 l 2.054688,0.941406 v 4.423829 h 1.445312 v -5.53125 L 12.75,13.876953 l 0.650391,-3.398437 2.285156,2.103515 1.747452,-1.734477 c 0.31097,0.238627 0.542791,0.17537 0.785751,0.175884 1.005294,-9e-5 1.820222,-0.815019 1.820312,-1.820313 -9e-5,-1.0052934 -0.815019,-1.8202222 -1.820312,-1.8203125 z m 0.0059,1.3535156 c 0.274357,9.402e-4 0.496232,0.2236881 0.496094,0.4980469 1.38e-4,0.2743588 -0.221737,0.4971067 -0.496094,0.4980469 C 17.94953,9.7325585 17.726466,9.5094953 17.726603,9.234375 17.726466,8.9592547 17.94953,8.7361915 18.22465,8.7363281 Z" transform="scale(0.26458333)"/><path id="path9403" style="fill:#fff;stroke:none;stroke-width:.264999;stroke-linecap:square;stroke-miterlimit:4;stroke-dasharray:none;paint-order:markers fill stroke" d="M 1.0131059,0.53415337 C 0.73729957,0.54114168 0.64785326,0.76400686 0.64775351,1.04575 c 0.001003,0.049428 0.006811,0.095893 0.0170532,0.1405599 H 1.1996578 L 1.3303992,1.4400412 1.6714636,0.85558076 1.9071081,1.1801088 2.1840938,1.1826926 C 2.1968962,1.1377378 2.2034247,1.0922518 2.2032141,1.04575 2.2031128,0.75953474 2.1266608,0.53477144 1.8404456,0.53467013 1.540136,0.53761574 1.5284374,0.67900891 1.4327185,0.76204643 1.3421819,0.69057893 1.2614053,0.53055962 1.0265417,0.53415337 c -0.00447,1.59e-6 -0.00906,-1.1091e-4 -0.013436,0 z M 2.1840938,1.1826926 c -0.016723,0.058723 -0.044375,0.116296 -0.079582,0.173116 l 0.4873088,-0.00258 V 1.1863099 Z M 2.1045121,1.3558086 1.7965206,1.3573589 1.6740474,1.16874 1.3009436,1.7361472 1.0828691,1.3532248 H 0.7273352 C 0.8490025,1.5865985 1.0981629,1.7800149 1.3903438,2.0580913 1.669028,1.8167708 1.9577231,1.5927143 2.1045121,1.3558086 Z M 0.7273352,1.3532248 C 0.69965645,1.3001334 0.67827264,1.2450376 0.66480673,1.1863099 H 0.25914674 v 0.1669149 z"/></g></svg>