<svg xmlns="http://www.w3.org/2000/svg" xmlns:svg="http://www.w3.org/2000/svg" id="svg10" width="22" height="22" x="0" y="0" fill="#000" enable-background="new 0 0 99.316 99.997" version="1.0" viewBox="0 0 21.85 21.999" xml:space="preserve"><metadata id="metadata16"/><path id="path2" style="fill:#fff;stroke-width:.20758" d="m 18.327285,15.516652 c -1.017125,-0.01824 -1.903328,0.770666 -2.945647,0.500454 -0.952298,-0.271819 -1.950516,-0.765534 -2.949277,-0.338881 -0.938402,0.492101 -2.078868,0.493759 -3.0170251,0 C 8.4157577,15.251421 7.4164572,15.744755 6.4634103,16.017106 5.261142,16.31195 4.2317908,15.256338 3.0296629,15.558611 2.2388959,15.806745 1.0534821,16.11293 1.0534821,16.11293 v 1.764949 c 1.0226762,0.01947 1.9128198,-0.776355 2.9601398,-0.498166 1.4912769,0.589492 1.7842151,0.623743 2.7777974,0.375279 0.9553792,-0.44042 2.0942104,-0.606317 3.0559286,-0.07975 0.9566571,0.429062 1.9815791,0.09313 2.8934291,-0.263824 1.038124,-0.339466 1.95525,0.382078 2.955963,0.461915 1.087184,0.105691 2.019821,-0.784126 3.121615,-0.493622 0.55673,-0.01509 1.943197,1.034046 1.977683,0.148315 v -1.471252 c -0.878739,0.05089 -1.592095,-0.588897 -2.468753,-0.540124 z"/><path id="path2-1" style="fill:#fff;stroke-width:.20758" d="m 18.327285,12.592022 c -1.017125,-0.01824 -1.903328,0.770666 -2.945647,0.500454 -0.952298,-0.271819 -1.950516,-0.765534 -2.949277,-0.338881 -0.938402,0.492101 -2.078868,0.493759 -3.0170249,0 C 8.4157578,12.326791 7.4164573,12.820125 6.4634104,13.092476 5.2611421,13.38732 4.2317909,12.331708 3.029663,12.633981 2.238896,12.882115 1.0534822,13.1883 1.0534822,13.1883 v 1.764949 c 1.0226762,0.01947 1.9128198,-0.776355 2.9601398,-0.498166 1.4912769,0.589492 1.7842151,0.623743 2.7777974,0.375279 0.9553792,-0.44042 2.0942104,-0.606317 3.0559286,-0.07975 0.956657,0.429062 1.981579,0.09313 2.893429,-0.263824 1.038124,-0.339466 1.95525,0.382078 2.955963,0.461915 1.087184,0.105691 2.019821,-0.784126 3.121615,-0.493622 0.55673,-0.01509 1.943197,1.034046 1.977683,0.148315 v -1.471252 c -0.878739,0.05089 -1.592095,-0.588897 -2.468753,-0.540124 z"/><path id="path851" style="fill:#fff;stroke-width:1.16861" d="m 15.771645,8.3604958 c 0.05505,1.1807818 -1.406378,2.0132882 -2.394197,1.3656158 -1.044532,-0.5537235 -1.017922,-2.2353035 0.04332,-2.7559408 1.018447,-0.5919723 2.378758,0.20782 2.350877,1.390325 z"/><path style="fill:#fff;fill-opacity:1;stroke:none;stroke-width:1.18448px;stroke-linecap:butt;stroke-linejoin:miter;stroke-opacity:1" id="path2791" d="M 4.3145569,12.014368 9.3210561,8.9478742 6.786081,6.2628496 11.908511,3.5970428 c 0.936726,-0.3746046 1.601464,0.5528762 1.096915,1.1662478 L 9.4152098,6.6598661 15.504839,12.51419 c -1.334475,-0.390685 -1.595745,-1.008768 -2.663055,-0.656789 -2.818488,0.929488 -2.219707,0.0047 -4.240291,0.02086 -2.2836952,0.01821 -1.8989609,1.154049 -4.2869361,0.136107 z"/></svg>