<svg xmlns="http://www.w3.org/2000/svg" xmlns:svg="http://www.w3.org/2000/svg" id="svg8" width="22" height="22" version="1.1" viewBox="0 0 5.821 5.821"><metadata id="metadata5"/><g id="layer1"><path style="fill:#fff;fill-opacity:1;stroke:none;stroke-width:.244651;stroke-opacity:1" id="path17" d="M 3.4497594,1.2723995 C 3.7188321,1.2675879 3.9350456,1.043501 3.9302338,0.7744294 3.9254222,0.50535723 3.7013352,0.28914379 3.4322626,0.29395542 3.1631898,0.29876705 2.9469764,0.5228543 2.9517881,0.7919262 2.9565981,1.0609979 3.1806867,1.2772111 3.4497594,1.2723995 Z M 3.0637352,4.3310097 2.8499094,3.4654121 3.5050565,3.7377246 4.0318851,5.1078311 4.4885872,4.9322216 3.8300515,3.2195885 3.1749046,2.9472761 3.3770914,2.4212785 C 3.7016475,2.7825092 4.1834322,3.0452834 4.7215778,3.0356596 L 4.7128291,2.5464372 C 4.2480673,2.5547482 3.9586663,2.3644029 3.7568534,2.0254461 L 3.5052429,1.6384419 C 3.4047741,1.4934249 3.2562572,1.3982048 3.0850292,1.4012668 c -0.073384,0.00131 -0.1218679,0.026649 -0.1952518,0.02796 L 1.627421,1.9901187 1.2471269,3.0265669 1.6538376,3.2423177 2.0691965,2.3071052 2.5595693,2.120264 2.1081061,3.2524111 2.4089713,4.1591882 1.3164273,4.8578585 1.9480117,4.971638 Z"/><g id="g954" transform="matrix(0.38576851,0,0,0.38576851,152.56385,-12.494408)"><rect id="rect919" width="68.792" height="79.375" x="-357.188" y="-7.938" style="fill:#cacaca;fill-opacity:1;stroke-width:14.6855;stroke-linecap:square;stroke-linejoin:round;stroke-dashoffset:531.552"/><rect id="rect851" width="10.583" height="10.583" x="-354.542" y="-5.292" style="fill:#e74c3c;fill-opacity:1;stroke-width:14.955;stroke-linecap:square;stroke-linejoin:round;stroke-dashoffset:531.552"/><rect style="fill:#ed1515;fill-opacity:1;stroke-width:14.955;stroke-linecap:square;stroke-linejoin:round;stroke-dashoffset:531.552" id="rect853" width="10.583" height="10.583" x="-343.958" y="-5.292"/><rect id="rect855" width="10.583" height="10.583" x="-333.375" y="-5.292" style="fill:#f47750;fill-opacity:1;stroke-width:14.955;stroke-linecap:square;stroke-linejoin:round;stroke-dashoffset:531.552"/><rect style="fill:#fdbc4b;fill-opacity:1;stroke-width:14.955;stroke-linecap:square;stroke-linejoin:round;stroke-dashoffset:531.552" id="rect857" width="10.583" height="10.583" x="-322.792" y="-5.292"/><rect id="rect859" width="10.583" height="10.583" x="-312.208" y="-5.292" style="fill:#c9ce3b;fill-opacity:1;stroke-width:14.955;stroke-linecap:square;stroke-linejoin:round;stroke-dashoffset:531.552"/><rect style="fill:#da4453;fill-opacity:1;stroke-width:14.955;stroke-linecap:square;stroke-linejoin:round;stroke-dashoffset:531.552" id="rect861" width="10.583" height="10.583" x="-354.542" y="5.292"/><rect id="rect863" width="10.583" height="10.583" x="-343.958" y="5.292" style="fill:#c0392b;fill-opacity:1;stroke-width:14.955;stroke-linecap:square;stroke-linejoin:round;stroke-dashoffset:531.552"/><rect style="fill:#d35400;fill-opacity:1;stroke-width:14.955;stroke-linecap:square;stroke-linejoin:round;stroke-dashoffset:531.552" id="rect865" width="10.583" height="10.583" x="-333.375" y="5.292"/><rect id="rect867" width="10.583" height="10.583" x="-322.792" y="5.292" style="fill:#f67400;fill-opacity:1;stroke-width:14.955;stroke-linecap:square;stroke-linejoin:round;stroke-dashoffset:531.552"/><rect style="fill:#f39c1f;fill-opacity:1;stroke-width:14.955;stroke-linecap:square;stroke-linejoin:round;stroke-dashoffset:531.552" id="rect869" width="10.583" height="10.583" x="-312.208" y="5.292"/><rect style="fill:#1cdc9a;fill-opacity:1;stroke-width:14.955;stroke-linecap:square;stroke-linejoin:round;stroke-dashoffset:531.552" id="rect871" width="10.583" height="10.583" x="-354.542" y="21.167"/><rect id="rect873" width="10.583" height="10.583" x="-343.958" y="21.167" style="fill:#2ecc71;fill-opacity:1;stroke-width:14.955;stroke-linecap:square;stroke-linejoin:round;stroke-dashoffset:531.552"/><rect style="fill:#1abc9c;fill-opacity:1;stroke-width:14.955;stroke-linecap:square;stroke-linejoin:round;stroke-dashoffset:531.552" id="rect875" width="10.583" height="10.583" x="-333.375" y="21.167"/><rect id="rect877" width="10.583" height="10.583" x="-322.792" y="21.167" style="fill:#3498db;fill-opacity:1;stroke-width:14.955;stroke-linecap:square;stroke-linejoin:round;stroke-dashoffset:531.552"/><rect style="fill:#3daee9;fill-opacity:1;stroke-width:14.955;stroke-linecap:square;stroke-linejoin:round;stroke-dashoffset:531.552" id="rect879" width="10.583" height="10.583" x="-312.208" y="21.167"/><rect id="rect881" width="10.583" height="10.583" x="-354.542" y="31.75" style="fill:#10d116;fill-opacity:1;stroke-width:14.955;stroke-linecap:square;stroke-linejoin:round;stroke-dashoffset:531.552"/><rect style="fill:#27ae60;fill-opacity:1;stroke-width:14.955;stroke-linecap:square;stroke-linejoin:round;stroke-dashoffset:531.552" id="rect883" width="10.583" height="10.583" x="-343.958" y="31.75"/><rect id="rect885" width="10.583" height="10.583" x="-333.375" y="31.75" style="fill:#16a085;fill-opacity:1;stroke-width:14.955;stroke-linecap:square;stroke-linejoin:round;stroke-dashoffset:531.552"/><rect style="fill:#2980b9;fill-opacity:1;stroke-width:14.955;stroke-linecap:square;stroke-linejoin:round;stroke-dashoffset:531.552" id="rect887" width="10.583" height="10.583" x="-322.792" y="31.75"/><rect id="rect889" width="10.583" height="10.583" x="-312.208" y="31.75" style="fill:#1d99f3;fill-opacity:1;stroke-width:14.955;stroke-linecap:square;stroke-linejoin:round;stroke-dashoffset:531.552"/><rect id="rect891" width="10.583" height="10.583" x="-301.625" y="21.167" style="fill:#9b59b6;fill-opacity:1;stroke-width:14.955;stroke-linecap:square;stroke-linejoin:round;stroke-dashoffset:531.552"/><rect style="fill:#8e44ad;fill-opacity:1;stroke-width:14.955;stroke-linecap:square;stroke-linejoin:round;stroke-dashoffset:531.552" id="rect893" width="10.583" height="10.583" x="-301.625" y="31.75"/><rect id="rect895" width="10.583" height="10.583" x="-354.542" y="47.625" style="fill:#34495e;fill-opacity:1;stroke-width:14.955;stroke-linecap:square;stroke-linejoin:round;stroke-dashoffset:531.552"/><rect style="fill:#31363b;fill-opacity:1;stroke-width:14.955;stroke-linecap:square;stroke-linejoin:round;stroke-dashoffset:531.552" id="rect897" width="10.583" height="10.583" x="-343.958" y="47.625"/><rect id="rect899" width="10.583" height="10.583" x="-333.375" y="47.625" style="fill:#7f8c8d;fill-opacity:1;stroke-width:14.955;stroke-linecap:square;stroke-linejoin:round;stroke-dashoffset:531.552"/><rect style="fill:#bdc3c7;fill-opacity:1;stroke-width:14.955;stroke-linecap:square;stroke-linejoin:round;stroke-dashoffset:531.552" id="rect901" width="10.583" height="10.583" x="-322.792" y="47.625"/><rect id="rect903" width="10.583" height="10.583" x="-312.208" y="47.625" style="fill:#fcfcfc;fill-opacity:1;stroke-width:14.955;stroke-linecap:square;stroke-linejoin:round;stroke-dashoffset:531.552"/><rect style="fill:#2c3e50;fill-opacity:1;stroke-width:14.955;stroke-linecap:square;stroke-linejoin:round;stroke-dashoffset:531.552" id="rect905" width="10.583" height="10.583" x="-354.542" y="58.208"/><rect id="rect907" width="10.583" height="10.583" x="-343.958" y="58.208" style="fill:#232629;fill-opacity:1;stroke-width:14.955;stroke-linecap:square;stroke-linejoin:round;stroke-dashoffset:531.552"/><rect style="fill:#4d4d4d;fill-opacity:1;stroke-width:14.955;stroke-linecap:square;stroke-linejoin:round;stroke-dashoffset:531.552" id="rect909" width="10.583" height="10.583" x="-333.375" y="58.208"/><rect id="rect911" width="10.583" height="10.583" x="-322.792" y="58.208" style="fill:#95a5a6;fill-opacity:1;stroke-width:14.955;stroke-linecap:square;stroke-linejoin:round;stroke-dashoffset:531.552"/><rect style="fill:#eff0f1;fill-opacity:1;stroke-width:14.955;stroke-linecap:square;stroke-linejoin:round;stroke-dashoffset:531.552" id="rect913" width="10.583" height="10.583" x="-312.208" y="58.208"/></g><path d="M 0.70720657,4.618942 0.50519813,4.8871827 c -3e-8,0 0.1915452,0.1543669 0.29349555,0.2268814 0.0408697,0.022353 0.0297057,0.028139 0.10131117,0.035126 l 2.08762525,-0.0023 2.0876253,0.0023 c 0.071605,-0.00699 0.061055,-0.012773 0.1019258,-0.035126 C 5.2791315,5.04155 5.4700628,4.8871827 5.4700628,4.8871827 L 5.2680537,4.618942 5.0181529,4.8124246 3.1356059,4.811273 H 2.8396543 l -1.88193269,0.00115 z" style="color:#000;font-style:normal;font-variant:normal;font-weight:400;font-stretch:normal;font-size:medium;line-height:normal;font-family:sans-serif;font-variant-ligatures:normal;font-variant-position:normal;font-variant-caps:normal;font-variant-numeric:normal;font-variant-alternates:normal;font-variant-east-asian:normal;font-feature-settings:normal;font-variation-settings:normal;text-indent:0;text-align:start;text-decoration:none;text-decoration-line:none;text-decoration-style:solid;text-decoration-color:#000;letter-spacing:normal;word-spacing:normal;text-transform:none;writing-mode:lr-tb;direction:ltr;text-orientation:mixed;dominant-baseline:auto;baseline-shift:baseline;text-anchor:start;white-space:normal;shape-padding:0;shape-margin:0;inline-size:0;clip-rule:nonzero;display:inline;overflow:visible;visibility:visible;opacity:1;isolation:auto;mix-blend-mode:normal;color-interpolation:sRGB;color-interpolation-filters:linearRGB;solid-color:#000;solid-opacity:1;vector-effect:none;fill:#fff;fill-opacity:1;fill-rule:nonzero;stroke:none;stroke-width:.304444px;stroke-linecap:butt;stroke-linejoin:miter;stroke-miterlimit:4;stroke-dasharray:none;stroke-dashoffset:0;stroke-opacity:1;color-rendering:auto;image-rendering:auto;shape-rendering:auto;text-rendering:auto;enable-background:accumulate;stop-color:#000;stop-opacity:1" id="path894-3"/><circle id="path999" cx="1.428" cy="5.414" r=".115" style="opacity:.997;fill:#fff;stroke:#fff;stroke-width:.264999;stroke-linejoin:round;stroke-opacity:1;paint-order:stroke fill markers"/><circle style="opacity:.997;fill:#fff;stroke:#fff;stroke-width:.264999;stroke-linejoin:round;stroke-opacity:1;paint-order:stroke fill markers" id="path999-5" cx="4.439" cy="5.414" r=".115"/></g></svg>