<svg xmlns="http://www.w3.org/2000/svg" xmlns:svg="http://www.w3.org/2000/svg" xmlns:xlink="http://www.w3.org/1999/xlink" id="svg8" width="210mm" height="297mm" version="1.1" viewBox="0 0 210 297"><defs id="defs2"><linearGradient id="linearGradient871" x1="91.713" x2="95.903" y1="266.486" y2="266.723" gradientTransform="rotate(22.027833,208.46275,168.26892)" gradientUnits="userSpaceOnUse"><stop style="stop-color:#fff;stop-opacity:1" id="stop867" offset="0"/><stop style="stop-color:#898d8d;stop-opacity:1" id="stop869" offset="1"/></linearGradient></defs><metadata id="metadata5"/><g id="layer1"><path d="m 108.52826,213.29755 a 56.035402,7.0061195 5.281088 0 0 -22.425508,2.5321 56.035402,7.0061195 5.281088 0 0 -0.233576,0.17697 l -0.206706,-0.0237 c -0.04471,0.11554 -0.07454,0.2314 -0.09612,0.34752 a 56.035402,7.0061195 5.281088 0 0 0.337963,1.58159 c 0.980726,1.70884 3.760629,3.46326 6.583579,5.2188 l -22.744347,15.50009 a 67.064653,11.556784 4.2275244 0 0 -39.967588,5.26867 67.064653,11.556784 4.2275244 0 0 -0.729154,0.57564 67.064653,11.556784 4.2275244 0 0 -2.754353,1.36358 67.064653,11.556784 4.2275244 0 0 38.908736,16.04324 l -32.176847,27.0646 52.228334,-24.74551 a 67.064653,11.556784 4.2275244 0 0 71.411147,-3.8186 67.064653,11.556784 4.2275244 0 0 0.72812,-0.57507 67.064653,11.556784 4.2275244 0 0 2.75539,-1.36415 67.064653,11.556784 4.2275244 0 0 -12.38374,-10.59818 40.033569,5.0733922 5.2502179 0 0 0.0563,-0.0369 40.033569,5.0733922 5.2502179 0 0 0.37672,-0.34325 l 22.45186,-15.30075 c 8.23597,-0.65161 17.65581,-1.47811 22.94433,-3.00957 a 56.035402,7.0061195 5.281088 0 0 2.65514,-1.03772 56.035402,7.0061195 5.281088 0 0 -46.08401,-12.26953 56.035402,7.0061195 5.281088 0 0 -41.6357,-2.54991 z" style="fill:#333;fill-opacity:.49421525;stroke:#000;stroke-width:.138931px;stroke-linecap:butt;stroke-linejoin:miter;stroke-opacity:.265501" id="path839"/><path style="fill:url(#linearGradient871);fill-opacity:1;stroke:#000;stroke-width:.264583px;stroke-linecap:butt;stroke-linejoin:miter;stroke-opacity:.265501" id="path865" d="M 70.603317,174.30832 33.024148,288.94657 94.566672,183.19473 Z"/><ellipse id="ellipse26" cx="144.426" cy="113.062" rx="70.319" ry="39.974" style="fill:#d45500;fill-opacity:1;fill-rule:evenodd;stroke-width:.264583" transform="rotate(22.027833)"/><ellipse style="fill:#f60;fill-opacity:1;fill-rule:evenodd;stroke-width:.264583" id="ellipse30" cx="145.017" cy="105.236" rx="70.319" ry="39.974" transform="rotate(22.027833)"/><path id="rect28" style="fill:#d45500;fill-opacity:1;fill-rule:evenodd;stroke-width:.264583" d="m 85.662408,24.322061 c -0.890996,8.350369 2.928035,17.133472 6.825491,25.923906 l -23.333902,57.672763 -0.730686,1.80598 0.248621,0.10059 a 42.43035,17.360788 22.027833 0 0 33.303948,30.10067 42.43035,17.360788 22.027833 0 0 44.86507,1.52585 l 0.13892,0.0562 0.24519,-0.60599 a 42.43035,17.360788 22.027833 0 0 0.59472,-1.15581 42.43035,17.360788 22.027833 0 0 0.37668,-1.24514 l 22.45185,-55.492655 c 9.28986,-2.66566 20.09069,-6.13552 24.76397,-13.17485 z"/><ellipse style="fill:#f60;fill-opacity:1;fill-rule:evenodd;stroke-width:.264583" id="path24" cx="148.14" cy="-10.262" rx="59.409" ry="23.967" transform="rotate(22.027833)"/></g></svg>